<svg xmlns="http://www.w3.org/2000/svg" width="25" height="25" viewBox="0 0 25 25">
    <g fill="none" fill-rule="nonzero" stroke="#73767C">
        <path stroke-width="1.3" d="M19.057 10.058c-.328-4.015-2.626-3.789-6.284-3.825-3.629-.035-6.19-.268-6.552 3.825h.015c0 .192-.015.357-.042.503-.202 1.074-1.11 1.008-2.202 1.008-1.24 0-2.245.087-2.245-1.51h.022c.033-6.26 5.52-7.106 10.887-7.106 5.383 0 10.887.85 10.887 7.161h-.006c-.025 1.456-1.02 1.376-2.244 1.376-1.083 0-1.986.061-2.198-.929a2.409 2.409 0 0 1-.047-.503h.009z"/>
        <path stroke-width="1.3" d="M16.9 10.416V9.78c0-.284-.327-.302-.73-.302h-.66c-.404 0-.73.018-.73.302V10.752h-4.667V9.781c0-.284-.327-.302-.73-.302h-.661c-.403 0-.73.018-.73.302v1.189c-1.064 1.104-4.542 5.807-4.669 6.377l.002 3.799c0 .35.285.636.636.636h16.97c.35 0 .636-.286.636-.636v-3.819c-.125-.552-3.603-5.253-4.666-6.358v-.553z"/>
        <path fill="#73767C" stroke-width=".5" d="M9.883 18.858a.618.618 0 1 1 0-1.237.618.618 0 0 1 0 1.237zM9.883 16.737a.618.618 0 1 1 0-1.237.618.618 0 0 1 0 1.237zM9.883 14.616a.618.618 0 1 1 0-1.237.618.618 0 0 1 0 1.237zM12.428 18.858a.618.618 0 1 1 0-1.237.618.618 0 0 1 0 1.237zM12.428 16.737a.618.618 0 1 1 0-1.237.618.618 0 0 1 0 1.237zM12.428 14.616a.618.618 0 1 1 0-1.237.618.618 0 0 1 0 1.237zM14.974 18.858a.618.618 0 1 1-.001-1.237.618.618 0 0 1 0 1.237zM14.974 16.737a.618.618 0 1 1-.001-1.237.618.618 0 0 1 0 1.237zM14.974 14.616a.618.618 0 1 1-.001-1.237.618.618 0 0 1 0 1.237z"/>
    </g>
</svg>
