<svg xmlns="http://www.w3.org/2000/svg" width="25" height="25" viewBox="0 0 25 25">
    <g fill="none" fill-rule="evenodd">
        <ellipse cx="12.5" cy="9.977" fill="#FFF" stroke="#73767C" stroke-width="1.1" rx="6.135" ry="6.52"/>
        <g fill="#FFF" stroke="#73767C" stroke-linejoin="round" stroke-width="1.1">
            <path d="M11.212 16.078h2.778v2.938h-2.778zM14.009 16.326c1.269-1.25 3.06-2.067 5.377-2.45.495 1.02.742 2.243.742 3.672 0 1.428-.247 2.652-.742 3.67-2.387-.53-4.179-1.212-5.377-2.043v-2.85zM11.212 18.77c-1.269 1.25-3.061 2.066-5.377 2.449-.495-1.02-.742-2.243-.742-3.671 0-1.429.247-2.653.742-3.672 2.386.531 4.179 1.213 5.377 2.044v2.85z"/>
        </g>
        <circle cx="10.3" cy="8.877" r="1" fill="#73767C"/>
        <circle cx="14.709" cy="8.877" r="1" fill="#73767C"/>
    </g>
</svg>
