<svg xmlns="http://www.w3.org/2000/svg" width="25" height="25" viewBox="0 0 25 25">
    <path fill="#EA262A" fill-rule="nonzero" stroke="#EA262A" stroke-width=".4" d="M12.126 3a5.287 5.287 0 0 0-5.282 5.282v2.349H5.22C4.55 10.63 4 11.18 4 11.85V21.6c0 .668.55 1.219 1.219 1.219h13.814c.669 0 1.22-.55 1.22-1.219V11.85c0-.669-.551-1.22-1.22-1.22h-1.625V8.283A5.287 5.287 0 0 0 12.126 3zm0 .813a4.462 4.462 0 0 1 4.47 4.469v2.349h-8.94V8.28a4.462 4.462 0 0 1 4.47-4.468zm-6.907 7.63h13.814a.4.4 0 0 1 .407.407V21.6a.4.4 0 0 1-.407.406H5.22a.4.4 0 0 1-.406-.406V11.85a.4.4 0 0 1 .406-.407zm2.031 4.47a.813.813 0 1 0 0 1.625.813.813 0 0 0 0-1.625zm3.25 0a.813.813 0 1 0 0 1.625.813.813 0 0 0 0-1.625zm3.251 0a.813.813 0 1 0 0 1.625.813.813 0 0 0 0-1.625zm3.25 0a.813.813 0 1 0 0 1.625.813.813 0 0 0 0-1.625z"/>
</svg>
