<svg xmlns="http://www.w3.org/2000/svg" width="25" height="25" viewBox="0 0 25 25">
    <g fill="#73767C" fill-rule="evenodd">
        <path d="M12.387 2.18a8.275 8.275 0 0 0-8.064 8.063 8.933 8.933 0 0 0 1.052 3.723l.063.112c4.874 7.813 6.33 7.813 6.949 7.813.967 0 2.011-.68 4.48-4.153a64.29 64.29 0 0 0 2.45-3.664l.063-.108a8.933 8.933 0 0 0 1.07-3.723 8.275 8.275 0 0 0-8.063-8.064zm5.824 11.2s-4.48 7.167-5.824 7.167c-1.344 0-5.824-7.168-5.824-7.168a7.643 7.643 0 0 1-.896-3.136 6.72 6.72 0 1 1 13.44 0 7.643 7.643 0 0 1-.91 3.136h.014z"/>
        <path d="M12.387 6.211a3.584 3.584 0 1 0 0 7.168 3.584 3.584 0 0 0 0-7.168zm0 5.824a2.24 2.24 0 1 1 0-4.48 2.24 2.24 0 0 1 0 4.48z"/>
    </g>
</svg>
